<svg xmlns="http://www.w3.org/2000/svg" version="1.1" xmlns:xlink="http://www.w3.org/1999/xlink" xmlns:svgjs="http://svgjs.com/svgjs" width="512" height="512" x="0" y="0" viewBox="0 0 32.68 32.68" style="enable-background:new 0 0 512 512" xml:space="preserve" class=""><g><path d="m7.679 16.34-3.84 5.226L0 16.34h2.339c0-7.72 6.281-14.001 14.001-14.001v3c-6.066 0-11.001 4.935-11.001 11.001h2.34zm21.162-5.224-3.84 5.225h2.34c0 6.064-4.935 11-11.001 11v3c7.721 0 14.001-6.279 14.001-14h2.339l-3.839-5.225zm-12.51-2.293a5.5 5.5 0 1 1 11 0 5.5 5.5 0 0 1-11 0zm3.413.592h-.348l-.103.679h.498c.062.629.166 1.046.312 1.254.25.356.895.534 1.928.534.889 0 1.467-.088 1.736-.263.363-.234.545-.756.545-1.565v-.19H23.26l.009.246c.01.359-.066.596-.229.712-.154.108-.492.162-1.017.162-.588 0-.938-.097-1.056-.291-.06-.1-.104-.3-.134-.599h1.586l.102-.679H20.8a19.676 19.676 0 0 1-.008-.599v-.081h1.832l.101-.679H20.82c.029-.337.086-.556.17-.656.132-.159.494-.238 1.088-.238.441 0 .727.035.854.104.188.105.284.353.284.74v.142h1.051l-.004-.125c-.024-.723-.155-1.192-.396-1.407-.262-.235-.789-.352-1.578-.352-1.03 0-1.713.143-2.051.429-.28.237-.444.691-.494 1.363h-.348l-.103.679h.435c.004.251.008.478.016.68zm-2.497 13.156a5.5 5.5 0 1 1-11 0 5.5 5.5 0 0 1 11 0zm-3.238 1.57-3.262.021v-.027c.178-.111.29-.232.335-.363l.056-.387-.004-.288v-.18h1.478v-.763h-1.478v-.896c0-.368.06-.604.178-.717.119-.111.377-.166.777-.166.351 0 .578.048.681.144.103.098.154.309.154.637l.004.115h1.034l.004-.269c0-.597-.133-.998-.399-1.204-.266-.207-.781-.311-1.545-.311-1.115 0-1.737.33-1.864.99l-.056.644v1.028h-.67v.764h.67v.352c0 .555-.173.854-.519.896v.838h4.428v-.857l-.002-.001z" fill="#b3b3b3" data-original="#000000" class="" opacity="1"></path></g></svg>